# xmcd
#
# Track frame offsets: 
#        150
#        16800
#        32338
#        47964
#        66261
#        85797
#        107471
#        127084
#
# Disc length: 1902 seconds
#
# Revision: 0
# Processed by: cddbd v1.5.2PL0 Copyright (c) Steve Scherf et al.
# Submitted via: ExactAudioCopy v0.99pb4
#
DISCID=5e076c08
DTITLE=The Blue Notes - Truth Has Come to Light
DYEAR=1977
DGENRE=Soul
TTITLE0=The Truth Has Come to Light
TTITLE1=People Are Running Around
TTITLE2=Standing by You Girl
TTITLE3=Memories
TTITLE4=The Girl Makes Me Wanna Sing
TTITLE5=Here I Am
TTITLE6=We Can Make It
TTITLE7=It's Over
EXTD=
EXTT0=
EXTT1=
EXTT2=
EXTT3=
EXTT4=
EXTT5=
EXTT6=
EXTT7=
PLAYORDER=
